<svg xmlns="http://www.w3.org/2000/svg" xmlns:xlink="http://www.w3.org/1999/xlink" version="1.1" x="0px" y="0px" viewBox="0 0 512 640" style="enable-background:new 0 0 512 512;" xml:space="preserve"><g><g><path style="" d="M281.584,173.871h-42.591v241.716h42.591V173.871z M246.911,137.771    h-49.593l-73.974,1.741l-13.333,26.569h122.71L246.911,137.771z M198.711,129.98l51.271-1.203V99.992H126.384v29.988H198.711z     M107.608,246.896h15.579c0.284,0,0.568,0.063,0.825,0.126h0.032h0.095l0,0l0.252,0.095h0.032l0.189,0.063l0.063,0.032l0,0    l0.095,0.031l0,0l0.063,0.063h0.032l0.063,0.032h0.032l0.063,0.031l0,0l0.063,0.063h0.032l0.126,0.096h0.031l0.067,0.032v0.031    l0.063,0.032l0.253,0.189l0,0c0.189,0.127,0.347,0.316,0.505,0.507h0.032l0.252,0.38l0,0c0.158,0.254,0.319,0.537,0.414,0.822    v0.032l0.063,0.253l0.031,0.032v0.063c0.063,0.285,0.126,0.602,0.126,0.887v0.063l-0.032,0.412l-3.007,24.669v0.095    c0,0.223-0.032,0.412-0.063,0.602l-12.985,107.637v0.223c0,0.379-0.063,0.76-0.189,1.107l-1.615,13.459h0.063h0.031h0.063h0.031    h0.063h0.032l0.063,0.031h0.032h0.063h0.032l0.063,0.032h0.032l0.063,0.031h0.032l0.158,0.032h0.032l0.063,0.031l0,0l0.095,0.031    l0,0l0.095,0.031l0,0l0.256,0.096l0,0l0.063,0.032l0.032,0.031h0.063l0.032,0.032l0.032,0.031h0.032l0.315,0.19l0.063,0.031    l0.031,0.032l0.032,0.031l0.032,0.031l0.032,0.031l0.063,0.032l0,0l0.063,0.063h0.032l0.032,0.032l0.031,0.031l0.032,0.032    l0.032,0.031l0.031,0.031l0.032,0.031l0.067,0.032v0.032l0.063,0.063l0,0l0.063,0.064l0,0l0.063,0.063l0,0l0.031,0.063h0.032    l0.032,0.063h0.032l0.031,0.094l0,0l0.063,0.064l0,0l0.031,0.063l0.032,0.032l0.032,0.063l0,0l0.063,0.063v0.032l0.032,0.063l0,0    l0.063,0.063v0.032l0.032,0.063l0,0l0.031,0.063v0.031l0.032,0.063l0.032,0.032v0.032l0.032,0.063l0.031,0.032v0.031l0.032,0.063    v0.031l0.032,0.063v0.032l0.031,0.031v0.063l0.032,0.031v0.063v0.031l0.032,0.063v0.031v0.064l0.031,0.031v0.063v0.031    l0.032,0.063l0,0v0.095l0,0l0.032,0.096l0,0v0.095l0,0v0.095l0,0v0.096l0,0l0.031,0.095l0,0v0.095v12.667h118.34V173.871H107.608    V246.896z M57.001,399.025h44.272l14.375-119.291h-58.9c-2.12,0-3.896-1.741-3.896-3.895c0-2.154,1.776-3.896,3.896-3.896h59.914    l1.583-12.667l0.288-2.279l0.253-2.313h-15.042h-0.126H39.555L57.001,399.025z M105.074,415.587v-8.771l-0.351,0.031H53.646    l-0.347-0.031v8.771H105.074z M87.183,307.158c-2.187-3.673-5.036-5.953-8.012-5.953c-2.917,0-5.703,2.186-7.886,5.764    l-0.095,0.189c-2.534,4.275-4.117,10.292-4.117,17.006c0,6.618,1.52,12.541,3.99,16.814l0.126,0.191    c2.183,3.672,5.032,5.953,7.98,5.953c2.913,0,5.731-2.186,7.914-5.764l0.098-0.189c2.53-4.275,4.117-10.293,4.117-17.006    C91.299,317.45,89.713,311.434,87.183,307.158z M79.17,293.415c5.889,0,11.051,3.736,14.659,9.753    c3.264,5.447,5.257,12.889,5.257,20.996s-1.994,15.548-5.257,20.994l-0.158,0.223c-3.576,5.89-8.707,9.531-14.501,9.531    c-5.861,0-11.055-3.736-14.631-9.754l-0.126-0.221c-3.169-5.415-5.131-12.762-5.131-20.773c0-8.107,1.993-15.549,5.257-20.996    l0.126-0.221C68.277,297.057,73.373,293.415,79.17,293.415z M362.085,343.797h-23.784c-2.154,0-3.895-1.741-3.895-3.895v-81.385    c0-2.153,1.74-3.895,3.895-3.895h23.784v-31.034h-47.563v151.243h47.563V343.797z M362.085,262.412h-19.888v73.595h19.888V262.412    z M482.893,211.588h-25.174h-0.126h-65.807h-0.095h-21.818v8.011v38.823v0.096v81.385v0.095v38.824v35.942h113.02V211.588z     M453.697,203.797v-19.539h-36.576c-2.154,0-3.896-1.742-3.896-3.895c0-2.153,1.741-3.895,3.896-3.895h36.576v-7.887h-58.016    v35.215H453.697z M443.088,290.787c-4.686-4.719-11.209-7.601-18.396-7.601c-7.191,0-13.684,2.913-18.4,7.601    c-4.686,4.686-7.602,11.21-7.602,18.398c0,3.547,0.698,6.903,1.965,9.943c0.821,1.963,1.867,3.832,3.103,5.51l18.176-18.176    c1.523-1.521,3.99-1.521,5.514,0l18.176,18.176c1.203-1.615,2.218-3.389,3.039-5.288l0.063-0.222    c1.267-3.04,1.965-6.396,1.965-9.943C450.689,301.997,447.805,295.473,443.088,290.787z M449.104,339.143l-24.412-24.416    l-24.416,24.416l24.416,24.415L449.104,339.143z M424.691,275.396c9.307,0,17.765,3.768,23.875,9.88    c6.145,6.144,9.911,14.599,9.911,23.909c0,4.56-0.916,8.93-2.565,12.92l-0.095,0.222c-1.204,2.819-2.787,5.478-4.654,7.853    l6.209,6.208c1.52,1.52,1.52,3.989,0,5.51l-29.926,29.926c-1.523,1.52-3.99,1.52-5.514,0l-29.925-29.926    c-1.52-1.521-1.52-3.99,0-5.51l6.207-6.208c-1.93-2.438-3.516-5.161-4.717-8.074c-1.68-3.99-2.596-8.36-2.596-12.92    c0-9.311,3.797-17.766,9.91-23.878C406.923,279.164,415.381,275.396,424.691,275.396z M203.621,251.773h-60.009l-9.437,70.174    h60.009L203.621,251.773z M140.222,243.982h67.832c2.155,0,3.896,1.742,3.896,3.895l-10.515,78.472    c-0.284,1.964-1.93,3.356-3.86,3.356l-67.832,0.032c-2.155,0-3.896-1.741-3.896-3.895l10.546-78.472    C136.646,245.407,138.323,243.982,140.222,243.982z M117.992,443.422c-2.12,0-3.864-1.741-3.864-3.895s1.744-3.896,3.864-3.896    h268.604c2.151,0,3.893,1.742,3.893,3.896s-1.741,3.895-3.893,3.895H117.992z M482.104,435.632c2.15,0,3.896,1.742,3.896,3.896    s-1.745,3.895-3.896,3.895h-70.935c-2.154,0-3.896-1.741-3.896-3.895s1.741-3.896,3.896-3.896H482.104z M394.004,453.778    c2.155,0,3.896,1.741,3.896,3.862c0,2.153-1.74,3.895-3.896,3.895H233.23c-2.155,0-3.896-1.741-3.896-3.895    c0-2.121,1.741-3.862,3.896-3.862H394.004z M29.894,461.535c-2.12,0-3.892-1.741-3.892-3.895c0-2.121,1.772-3.862,3.892-3.862    h70.969c2.151,0,3.892,1.741,3.892,3.862c0,2.153-1.741,3.895-3.892,3.895H29.894z M163.437,461.535    c-2.155,0-3.896-1.741-3.896-3.895c0-2.121,1.741-3.862,3.896-3.862h32.361c2.155,0,3.896,1.741,3.896,3.862    c0,2.153-1.74,3.895-3.896,3.895H163.437z M287.919,81.277c-2.123,0-3.896-1.742-3.896-3.896c0-2.121,1.772-3.895,3.896-3.895    h7.886V50.465h29.641v23.021h6.205c2.155,0,3.896,1.773,3.896,3.895c0,2.154-1.741,3.896-3.896,3.896h-6.205v57.443    c0.032,1.584,0.98,3.104,2.563,3.674c10.041,3.609,18.685,10.323,24.735,18.937c5.889,8.329,9.342,18.526,9.342,29.482v16.784    v0.094v8.107h-51.46c-2.154,0-3.896,1.741-3.896,3.896v159.032c0,2.152,1.741,3.895,3.896,3.895h51.46v32.744h-72.71V169.977    c0-1.014-0.379-1.932-1.014-2.629l-0.127-0.127l-5.32-6.27l-6.871-8.17c2.06-1.869,4.274-3.61,6.618-5.13    c3.197-2.091,6.65-3.831,10.294-5.161c1.646-0.477,2.85-1.965,2.85-3.77V81.277H287.919z M241.4,166.082h35.72l-9.343-11.053    l-0.063-0.063l-13.013-15.39L241.4,166.082z" fill-rule="evenodd" clip-rule="evenodd"/></g></g><text x="0" y="527" fill="#000000" font-size="5px" font-weight="bold" font-family="'Helvetica Neue', Helvetica, Arial-Unicode, Arial, Sans-serif">Created by Flatart</text><text x="0" y="532" fill="#000000" font-size="5px" font-weight="bold" font-family="'Helvetica Neue', Helvetica, Arial-Unicode, Arial, Sans-serif">from the Noun Project</text></svg>