<svg xmlns="http://www.w3.org/2000/svg" xmlns:xlink="http://www.w3.org/1999/xlink" version="1.1" x="0px" y="0px" viewBox="0 0 512 640" style="enable-background:new 0 0 512 512;" xml:space="preserve"><g><g><g><g><path d="M283.324,427.496H232.6c-1.657,0-3-1.343-3-3V277.127c0-1.657,1.343-3,3-3s3,1.343,3,3v144.369h44.725V176.315H235.6      v50.812c0,1.657-1.343,3-3,3s-3-1.343-3-3v-53.812c0-1.657,1.343-3,3-3h50.725c1.657,0,3,1.343,3,3v251.181      C286.324,426.153,284.981,427.496,283.324,427.496z"/></g><g><path d="M232.6,427.496H116.057c-1.657,0-3-1.343-3-3s1.343-3,3-3H229.6V176.315H103.323v75.362h16.604      c0.858,0,1.676,0.368,2.245,1.01c0.569,0.643,0.836,1.498,0.733,2.35L106.724,389.01c0.007,0.084,0.011,0.17,0.011,0.256      c0,1.657-1.343,3-3,3c-0.004,0-0.006,0.001-0.011,0c-0.179-0.001-0.354-0.017-0.525-0.048c-0.666-0.118-1.29-0.455-1.74-0.962      c-0.569-0.643-0.868-1.498-0.765-2.35l15.851-131.229h-16.22c-1.657,0-3-1.343-3-3v-81.362c0-1.657,1.343-3,3-3H232.6      c1.657,0,3,1.343,3,3v251.181C235.6,426.153,234.256,427.496,232.6,427.496z"/></g><g><path d="M232.6,176.315H100.323c-1.041,0-2.007-0.54-2.554-1.425c-0.546-0.886-0.594-1.992-0.127-2.922l17.343-34.512      c0.498-0.991,1.502-1.626,2.61-1.652l133.808-3.141c1.045-0.024,2.041,0.504,2.604,1.393c0.563,0.89,0.62,2.009,0.148,2.95      l-18.874,37.652C234.773,175.674,233.735,176.315,232.6,176.315z M105.188,170.315h125.559l15.808-31.536l-127.018,2.981      L105.188,170.315z"/></g><g><path d="M251.474,139.969H119.229c-1.657,0-3-1.343-3-3V98.934c0-1.657,1.343-3,3-3h132.245c1.657,0,3,1.343,3,3v38.035      C254.474,138.626,253.13,139.969,251.474,139.969z M122.229,133.969h126.245v-32.035H122.229V133.969z"/></g><g><path d="M101.342,411.635H49.915c-1.518,0-2.796-1.134-2.979-2.641L28.351,255.037c-0.103-0.852,0.164-1.707,0.734-2.35      c0.569-0.642,1.386-1.01,2.245-1.01h88.599c0.858,0,1.675,0.368,2.245,1.01c0.57,0.643,0.836,1.498,0.734,2.35L104.32,408.994      C104.138,410.501,102.859,411.635,101.342,411.635z M52.575,405.635h46.107l17.862-147.957H34.713L52.575,405.635z"/></g><g><path d="M105.613,427.496h-59.97c-1.657,0-3-1.343-3-3v-16.658c0-1.657,1.343-3,3-3h59.97c1.657,0,3,1.343,3,3v16.658      C108.613,426.153,107.27,427.496,105.613,427.496z M48.644,421.496h53.97v-10.658h-53.97V421.496z"/></g><g><path d="M75.614,358.582c-10.712,0-19.103-13.193-19.103-30.035c0-16.851,8.391-30.051,19.103-30.051      c10.728,0,19.131,13.2,19.131,30.051C94.745,345.389,86.342,358.582,75.614,358.582z M75.614,304.496      c-7.103,0-13.103,11.014-13.103,24.051c0,13.028,6,24.035,13.103,24.035c7.118,0,13.131-11.007,13.131-24.035      C88.745,315.51,82.732,304.496,75.614,304.496z"/></g><g><path d="M116.868,282.895H53.041c-1.657,0-3-1.343-3-3s1.343-3,3-3h63.827c1.657,0,3,1.343,3,3S118.525,282.895,116.868,282.895      z"/></g><g><path d="M103.734,392.266H60.057c-1.657,0-3-1.343-3-3s1.343-3,3-3h43.678c1.657,0,3,1.343,3,3S105.391,392.266,103.734,392.266      z"/></g><g><path d="M364.367,427.258h-81.043c-1.657,0-3-1.343-3-3V174.414l-14.146-16.729c-0.991-1.172-0.938-2.904,0.125-4.013      c5.732-5.981,12.782-10.751,20.491-13.882V49.071c0-1.657,1.343-3,3-3h37.685c1.657,0,3,1.343,3,3v90.714      c22.151,8.942,36.889,30.577,36.889,54.493v60.65c0,1.657-1.343,3-3,3s-3-1.343-3-3v-60.65      c0-22.104-14.029-42.041-34.911-49.609c-1.187-0.43-1.978-1.558-1.978-2.82V52.071h-31.685v89.777      c0,1.261-0.788,2.387-1.973,2.818c-6.772,2.47-13.04,6.338-18.272,11.26l13.066,15.451c0.458,0.542,0.709,1.228,0.709,1.937      v247.943h75.043v-116.33c0-1.657,1.343-3,3-3s3,1.343,3,3v119.33C367.367,425.915,366.024,427.258,364.367,427.258z"/></g><g><path d="M364.367,386.48h-55.762c-1.657,0-3-1.343-3-3V223.37c0-1.657,1.343-3,3-3h55.762c1.657,0,3,1.343,3,3V383.48      C367.367,385.138,366.024,386.48,364.367,386.48z M311.605,380.48h49.762V226.37h-49.762V380.48z"/></g><g><path d="M364.367,347.393h-27.863c-1.657,0-3-1.343-3-3v-81.938c0-1.657,1.343-3,3-3h27.863c1.657,0,3,1.343,3,3v81.938      C367.367,346.05,366.024,347.393,364.367,347.393z M339.504,341.393h21.863v-75.938h-21.863V341.393z"/></g><g><path d="M283.344,176.315c-0.005,0-0.013,0.001-0.02,0H232.6c-1.041,0-2.007-0.539-2.553-1.425s-0.595-1.991-0.128-2.921      l18.906-37.652c0.453-0.901,1.327-1.514,2.328-1.633c0.997-0.121,1.994,0.272,2.645,1.042l31.631,37.431      c0.564,0.546,0.915,1.311,0.915,2.158C286.344,174.972,285.001,176.315,283.344,176.315z M237.463,170.315h39.398      l-24.714-29.245L237.463,170.315z"/></g><g><path d="M485.996,426.684H364.367c-1.657,0-3-1.343-3-3v-44.345c0-1.657,1.343-3,3-3s3,1.343,3,3v41.345h115.629V214.286      H367.367V329.34c0,1.657-1.343,3-3,3s-3-1.343-3-3V211.286c0-1.657,1.343-3,3-3h121.629c1.657,0,3,1.343,3,3v212.398      C488.996,425.341,487.653,426.684,485.996,426.684z"/></g><g><path d="M456.602,214.286h-66.251c-1.657,0-3-1.343-3-3v-43.295c0-1.657,1.343-3,3-3h66.251c1.657,0,3,1.343,3,3v43.295      C459.602,212.942,458.259,214.286,456.602,214.286z M393.351,208.286h60.251v-37.295h-60.251V208.286z"/></g><g><path d="M444.742,337.764c-0.768,0-1.535-0.293-2.121-0.879l-19.145-19.143l-19.142,19.143c-1.172,1.172-3.07,1.172-4.242,0      c-6.262-6.26-9.71-14.577-9.71-23.418c0-18.259,14.846-33.113,33.094-33.113c18.25,0,33.097,14.854,33.097,33.113      c0,8.841-3.448,17.158-9.71,23.418C446.277,337.471,445.51,337.764,444.742,337.764z M423.477,310.5      c0.768,0,1.535,0.293,2.121,0.879l19.029,19.027c3.854-4.796,5.946-10.709,5.946-16.939c0-14.95-12.155-27.113-27.097-27.113      c-14.939,0-27.094,12.163-27.094,27.113c0,6.23,2.093,12.144,5.945,16.939l19.027-19.027      C421.941,310.793,422.709,310.5,423.477,310.5z"/></g><g><path d="M423.477,376.756c-0.768,0-1.535-0.293-2.121-0.879l-30.129-30.129c-0.563-0.563-0.879-1.325-0.879-2.121      s0.316-1.559,0.879-2.121l30.129-30.127c1.172-1.172,3.07-1.172,4.242,0l30.129,30.127c0.563,0.563,0.879,1.325,0.879,2.121      s-0.316,1.559-0.879,2.121l-30.129,30.129C425.012,376.463,424.244,376.756,423.477,376.756z M397.591,343.627l25.886,25.887      l25.886-25.887l-25.886-25.885L397.591,343.627z"/></g><g><path d="M348.809,83.091h-83.211c-1.657,0-3-1.343-3-3s1.343-3,3-3h83.211c1.657,0,3,1.343,3,3S350.466,83.091,348.809,83.091z"/></g><g><path d="M385.123,447.693H114.701c-1.657,0-3-1.343-3-3s1.343-3,3-3h270.422c1.657,0,3,1.343,3,3      S386.78,447.693,385.123,447.693z"/></g><g><path d="M481.278,447.693h-71.414c-1.657,0-3-1.343-3-3s1.343-3,3-3h71.414c1.657,0,3,1.343,3,3      S482.936,447.693,481.278,447.693z"/></g><g><path d="M392.585,465.93H230.721c-1.657,0-3-1.343-3-3s1.343-3,3-3h161.864c1.657,0,3,1.343,3,3S394.242,465.93,392.585,465.93z      "/></g><g><path d="M97.453,465.93H26.004c-1.657,0-3-1.343-3-3s1.343-3,3-3h71.449c1.657,0,3,1.343,3,3S99.11,465.93,97.453,465.93z"/></g><g><path d="M193.035,465.93h-32.584c-1.657,0-3-1.343-3-3s1.343-3,3-3h32.584c1.657,0,3,1.343,3,3S194.692,465.93,193.035,465.93z"/></g><g><path d="M194.82,333.238h-68.292c-0.865,0-1.688-0.374-2.258-1.025s-0.83-1.517-0.715-2.374l10.552-78.494      c0.2-1.489,1.471-2.6,2.973-2.6h68.292c0.865,0,1.688,0.374,2.258,1.025s0.83,1.517,0.715,2.375l-10.552,78.493      C197.593,332.127,196.323,333.238,194.82,333.238z M129.958,327.238h62.238l9.745-72.494h-62.238L129.958,327.238z"/></g><g><path d="M456.602,186.772h-40.744c-1.657,0-3-1.343-3-3s1.343-3,3-3h40.744c1.657,0,3,1.343,3,3      S458.259,186.772,456.602,186.772z"/></g></g></g></g><text x="0" y="527" fill="#000000" font-size="5px" font-weight="bold" font-family="'Helvetica Neue', Helvetica, Arial-Unicode, Arial, Sans-serif">Created by Flatart</text><text x="0" y="532" fill="#000000" font-size="5px" font-weight="bold" font-family="'Helvetica Neue', Helvetica, Arial-Unicode, Arial, Sans-serif">from the Noun Project</text></svg>