<?xml version="1.0" encoding="utf-8"?>
<!-- Generator: Adobe Illustrator 23.0.3, SVG Export Plug-In . SVG Version: 6.00 Build 0)  -->
<svg version="1.1" id="Layer_1" xmlns="http://www.w3.org/2000/svg" xmlns:xlink="http://www.w3.org/1999/xlink" x="0px" y="0px"
	 viewBox="0 0 512 640" style="enable-background:new 0 0 512 640;" xml:space="preserve">
<style type="text/css">
	.st0{fill-rule:evenodd;clip-rule:evenodd;fill:none;stroke:#02CC1A;stroke-width:6;stroke-miterlimit:10;}
</style>
<g>
	<g>
		<path class="st0" d="M281.58,173.87h-42.59v241.72h42.59V173.87z M246.91,137.77h-49.59l-73.97,1.74l-13.33,26.57h122.71
			L246.91,137.77z M198.71,129.98l51.27-1.2V99.99h-123.6v29.99H198.71z M107.61,246.9h15.58c0.28,0,0.57,0.06,0.82,0.13h0.03h0.1
			l0,0l0.25,0.1h0.03l0.19,0.06l0.06,0.03l0,0l0.1,0.03l0,0l0.06,0.06h0.03l0.06,0.03h0.03l0.06,0.03l0,0l0.06,0.06h0.03l0.13,0.1
			h0.03l0.07,0.03v0.03l0.06,0.03l0.25,0.19l0,0c0.19,0.13,0.35,0.32,0.5,0.51h0.03l0.25,0.38l0,0c0.16,0.25,0.32,0.54,0.41,0.82
			v0.03l0.06,0.25l0.03,0.03v0.06c0.06,0.29,0.13,0.6,0.13,0.89v0.06l-0.03,0.41l-3.01,24.67v0.1c0,0.22-0.03,0.41-0.06,0.6
			l-12.99,107.64v0.22c0,0.38-0.06,0.76-0.19,1.11l-1.61,13.46h0.06h0.03h0.06h0.03h0.06h0.03l0.06,0.03h0.03h0.06h0.03l0.06,0.03
			h0.03l0.06,0.03h0.03l0.16,0.03h0.03l0.06,0.03l0,0l0.1,0.03l0,0l0.1,0.03l0,0l0.26,0.1l0,0l0.06,0.03l0.03,0.03h0.06l0.03,0.03
			l0.03,0.03h0.03l0.32,0.19l0.06,0.03l0.03,0.03l0.03,0.03l0.03,0.03l0.03,0.03l0.06,0.03l0,0l0.06,0.06h0.03l0.03,0.03l0.03,0.03
			l0.03,0.03l0.03,0.03l0.03,0.03l0.03,0.03l0.07,0.03v0.03l0.06,0.06l0,0l0.06,0.06l0,0l0.06,0.06l0,0l0.03,0.06h0.03l0.03,0.06
			h0.03l0.03,0.09l0,0l0.06,0.06l0,0l0.03,0.06l0.03,0.03l0.03,0.06l0,0l0.06,0.06v0.03l0.03,0.06l0,0l0.06,0.06v0.03l0.03,0.06l0,0
			l0.03,0.06v0.03l0.03,0.06l0.03,0.03v0.03l0.03,0.06l0.03,0.03v0.03l0.03,0.06v0.03l0.03,0.06v0.03l0.03,0.03v0.06l0.03,0.03v0.06
			v0.03l0.03,0.06v0.03v0.06l0.03,0.03v0.06v0.03l0.03,0.06l0,0v0.1l0,0l0.03,0.1l0,0v0.1l0,0v0.1l0,0v0.1l0,0l0.03,0.1l0,0v0.1
			v12.67H231.2v-241.7h-123.6V246.9z M57,399.02h44.27l14.38-119.29h-58.9c-2.12,0-3.9-1.74-3.9-3.89s1.78-3.9,3.9-3.9h59.91
			l1.58-12.67l0.29-2.28l0.25-2.31h-15.04h-0.13H39.56L57,399.02z M105.07,415.59v-8.77l-0.35,0.03H53.65l-0.35-0.03v8.77H105.07z
			 M87.18,307.16c-2.19-3.67-5.04-5.95-8.01-5.95c-2.92,0-5.7,2.19-7.89,5.76l-0.1,0.19c-2.53,4.27-4.12,10.29-4.12,17.01
			c0,6.62,1.52,12.54,3.99,16.81l0.13,0.19c2.18,3.67,5.03,5.95,7.98,5.95c2.91,0,5.73-2.19,7.91-5.76l0.1-0.19
			c2.53-4.27,4.12-10.29,4.12-17.01C91.3,317.45,89.71,311.43,87.18,307.16z M79.17,293.42c5.89,0,11.05,3.74,14.66,9.75
			c3.26,5.45,5.26,12.89,5.26,21s-1.99,15.55-5.26,20.99l-0.16,0.22c-3.58,5.89-8.71,9.53-14.5,9.53c-5.86,0-11.06-3.74-14.63-9.75
			l-0.13-0.22c-3.17-5.42-5.13-12.76-5.13-20.77c0-8.11,1.99-15.55,5.26-21l0.13-0.22C68.28,297.06,73.37,293.42,79.17,293.42z
			 M362.08,343.8H338.3c-2.15,0-3.89-1.74-3.89-3.89v-81.39c0-2.15,1.74-3.9,3.89-3.9h23.78v-31.03h-47.56v151.24h47.56V343.8z
			 M362.08,262.41H342.2v73.6h19.89V262.41z M482.89,211.59h-25.17h-0.13h-65.81h-0.1h-21.82v8.01v38.82v0.1v81.39v0.1v38.82v35.94
			h113.02L482.89,211.59L482.89,211.59z M453.7,203.8v-19.54h-36.58c-2.15,0-3.9-1.74-3.9-3.9s1.74-3.9,3.9-3.9h36.58v-7.89h-58.02
			v35.21L453.7,203.8L453.7,203.8z M443.09,290.79c-4.69-4.72-11.21-7.6-18.4-7.6c-7.19,0-13.68,2.91-18.4,7.6
			c-4.69,4.69-7.6,11.21-7.6,18.4c0,3.55,0.7,6.9,1.96,9.94c0.82,1.96,1.87,3.83,3.1,5.51l18.18-18.18c1.52-1.52,3.99-1.52,5.51,0
			l18.18,18.18c1.2-1.61,2.22-3.39,3.04-5.29l0.06-0.22c1.27-3.04,1.96-6.4,1.96-9.94C450.69,302,447.8,295.47,443.09,290.79z
			 M449.1,339.14l-24.41-24.42l-24.42,24.42l24.42,24.42L449.1,339.14z M424.69,275.4c9.31,0,17.76,3.77,23.88,9.88
			c6.14,6.14,9.91,14.6,9.91,23.91c0,4.56-0.92,8.93-2.57,12.92l-0.1,0.22c-1.2,2.82-2.79,5.48-4.65,7.85l6.21,6.21
			c1.52,1.52,1.52,3.99,0,5.51l-29.93,29.93c-1.52,1.52-3.99,1.52-5.51,0l-29.92-29.93c-1.52-1.52-1.52-3.99,0-5.51l6.21-6.21
			c-1.93-2.44-3.52-5.16-4.72-8.07c-1.68-3.99-2.6-8.36-2.6-12.92c0-9.31,3.8-17.77,9.91-23.88
			C406.92,279.16,415.38,275.4,424.69,275.4z M203.62,251.77h-60.01l-9.44,70.17h60.01L203.62,251.77z M140.22,243.98h67.83
			c2.15,0,3.9,1.74,3.9,3.9l-10.51,78.47c-0.28,1.96-1.93,3.36-3.86,3.36l-67.83,0.03c-2.15,0-3.9-1.74-3.9-3.89l10.55-78.47
			C136.65,245.41,138.32,243.98,140.22,243.98z M117.99,443.42c-2.12,0-3.86-1.74-3.86-3.89s1.74-3.9,3.86-3.9h268.6
			c2.15,0,3.89,1.74,3.89,3.9s-1.74,3.89-3.89,3.89H117.99z M482.1,435.63c2.15,0,3.9,1.74,3.9,3.9s-1.74,3.89-3.9,3.89h-70.93
			c-2.15,0-3.9-1.74-3.9-3.89s1.74-3.9,3.9-3.9H482.1z M394,453.78c2.15,0,3.9,1.74,3.9,3.86c0,2.15-1.74,3.89-3.9,3.89H233.23
			c-2.15,0-3.9-1.74-3.9-3.89c0-2.12,1.74-3.86,3.9-3.86H394z M29.89,461.54c-2.12,0-3.89-1.74-3.89-3.89
			c0-2.12,1.77-3.86,3.89-3.86h70.97c2.15,0,3.89,1.74,3.89,3.86c0,2.15-1.74,3.89-3.89,3.89H29.89z M163.44,461.54
			c-2.15,0-3.9-1.74-3.9-3.89c0-2.12,1.74-3.86,3.9-3.86h32.36c2.15,0,3.9,1.74,3.9,3.86c0,2.15-1.74,3.89-3.9,3.89H163.44z
			 M287.92,81.28c-2.12,0-3.9-1.74-3.9-3.9c0-2.12,1.77-3.89,3.9-3.89h7.89V50.47h29.64v23.02h6.2c2.15,0,3.9,1.77,3.9,3.89
			c0,2.15-1.74,3.9-3.9,3.9h-6.2v57.44c0.03,1.58,0.98,3.1,2.56,3.67c10.04,3.61,18.68,10.32,24.73,18.94
			c5.89,8.33,9.34,18.53,9.34,29.48v16.78v0.09v8.11h-51.46c-2.15,0-3.9,1.74-3.9,3.9v159.03c0,2.15,1.74,3.89,3.9,3.89h51.46v32.74
			h-72.71V169.98c0-1.01-0.38-1.93-1.01-2.63l-0.13-0.13l-5.32-6.27l-6.87-8.17c2.06-1.87,4.27-3.61,6.62-5.13
			c3.2-2.09,6.65-3.83,10.29-5.16c1.65-0.48,2.85-1.96,2.85-3.77V81.28H287.92z M241.4,166.08h35.72l-9.34-11.05l-0.06-0.06
			l-13.01-15.39L241.4,166.08z"/>
	</g>
</g>
</svg>
