<svg width="2435.98" height="1125" xmlns="http://www.w3.org/2000/svg">
 <style type="text/css">.st0{fill-rule:evenodd;clip-rule:evenodd;fill:none;stroke:#02CC1A;stroke-width:2;stroke-miterlimit:10;}</style>

 <g>
  <title>background</title>
  <rect fill="none" id="canvas_background" height="402" width="582" y="-1" x="-1"/>
 </g>
 <g>
  <title>Layer 1</title>
  <g id="svg_1">
   <g id="svg_2">
    <path id="svg_3" d="m1206.8,473.86l-29.63,0l0,168.17l29.63,0l0,-168.17zm-24.12,-25.12l-34.5,0l-51.47,1.21l-9.28,18.49l85.37,0l9.88,-19.7zm-33.54,-5.42l35.67,-0.84l0,-20.03l-85.99,0l0,20.86l50.32,0l0,0.01zm-63.38,81.35l10.84,0c0.2,0 0.4,0.04 0.57,0.09l0.02,0l0.07,0l0,0l0.18,0.07l0.02,0l0.13,0.04l0.04,0.02l0,0l0.07,0.02l0,0l0.04,0.04l0.02,0l0.04,0.02l0.02,0l0.04,0.02l0,0l0.04,0.04l0.02,0l0.09,0.07l0.02,0l0.05,0.02l0,0.02l0.04,0.02l0.18,0.13l0,0c0.13,0.09 0.24,0.22 0.35,0.35l0.02,0l0.18,0.26l0,0c0.11,0.18 0.22,0.37 0.29,0.57l0,0.02l0.04,0.18l0.02,0.02l0,0.04c0.04,0.2 0.09,0.42 0.09,0.62l0,0.04l-0.02,0.29l-2.09,17.16l0,0.07c0,0.16 -0.02,0.29 -0.04,0.42l-9.03,74.89l0,0.16c0,0.26 -0.04,0.53 -0.13,0.77l-1.12,9.36l0.04,0l0.02,0l0.04,0l0.02,0l0.04,0l0.02,0l0.04,0.02l0.02,0l0.04,0l0.02,0l0.04,0.02l0.02,0l0.04,0.02l0.02,0l0.11,0.02l0.02,0l0.04,0.02l0,0l0.07,0.02l0,0l0.07,0.02l0,0l0.18,0.07l0,0l0.04,0.02l0.02,0.02l0.04,0l0.02,0.02l0.02,0.02l0.02,0l0.22,0.13l0.04,0.02l0.02,0.02l0.02,0.02l0.02,0.02l0.02,0.02l0.04,0.02l0,0l0.04,0.04l0.02,0l0.02,0.02l0.02,0.02l0.02,0.02l0.02,0.02l0.02,0.02l0.02,0.02l0.05,0.02l0,0.02l0.04,0.04l0,0l0.04,0.04l0,0l0.04,0.04l0,0l0.02,0.04l0.02,0l0.02,0.04l0.02,0l0.02,0.07l0,0l0.04,0.04l0,0l0.02,0.04l0.02,0.02l0.02,0.04l0,0l0.04,0.04l0,0.02l0.02,0.04l0,0l0.04,0.04l0,0.02l0.02,0.04l0,0l0.02,0.04l0,0.02l0.02,0.04l0.02,0.02l0,0.02l0.02,0.04l0.02,0.02l0,0.02l0.02,0.04l0,0.02l0.02,0.04l0,0.02l0.02,0.02l0,0.04l0.02,0.02l0,0.04l0,0.02l0.02,0.04l0,0.02l0,0.04l0.02,0.02l0,0.04l0,0.02l0.02,0.04l0,0l0,0.07l0,0l0.02,0.07l0,0l0,0.07l0,0l0,0.07l0,0l0,0.07l0,0l0.02,0.07l0,0l0,0.07l0,8.81l82.33,0l0,-168l-85.99,0l0,50.81l0.16,0zm-35.21,105.84l30.8,0l10,-83l-40.98,0c-1.47,0 -2.71,-1.21 -2.71,-2.71c0,-1.5 1.24,-2.71 2.71,-2.71l41.68,0l1.1,-8.81l0.2,-1.59l0.18,-1.61l-10.47,0l-0.09,0l-44.57,0l12.15,100.43zm33.44,11.52l0,-6.1l-0.24,0.02l-35.54,0l-0.24,-0.02l0,6.1l36.02,0zm-12.44,-75.44c-1.52,-2.56 -3.5,-4.14 -5.57,-4.14c-2.03,0 -3.97,1.52 -5.49,4.01l-0.07,0.13c-1.76,2.97 -2.86,7.16 -2.86,11.83c0,4.6 1.06,8.73 2.78,11.7l0.09,0.13c1.52,2.55 3.5,4.14 5.55,4.14c2.03,0 3.99,-1.52 5.51,-4.01l0.07,-0.13c1.76,-2.97 2.86,-7.16 2.86,-11.83c-0.01,-4.67 -1.11,-8.85 -2.87,-11.83zm-5.58,-9.56c4.1,0 7.69,2.6 10.2,6.79c2.27,3.79 3.66,8.97 3.66,14.61c0,5.64 -1.39,10.82 -3.66,14.61l-0.11,0.16c-2.49,4.1 -6.06,6.63 -10.09,6.63c-4.08,0 -7.69,-2.6 -10.18,-6.79l-0.09,-0.15c-2.2,-3.77 -3.57,-8.88 -3.57,-14.45c0,-5.64 1.39,-10.82 3.66,-14.61l0.09,-0.15c2.51,-4.11 6.06,-6.65 10.09,-6.65zm196.84,35.05l-16.55,0c-1.5,0 -2.71,-1.21 -2.71,-2.71l0,-56.62c0,-1.5 1.21,-2.71 2.71,-2.71l16.55,0l0,-21.59l-33.09,0l0,105.23l33.09,0l0,-21.6zm0,-56.62l-13.84,0l0,51.2l13.84,0l0,-51.2zm84.05,-35.36l-17.51,0l-0.09,0l-45.78,0l-0.07,0l-15.18,0l0,5.57l0,27.01l0,0.07l0,56.62l0,0.07l0,27.01l0,25.01l78.63,0l0,-141.36l0,0zm-20.31,-5.42l0,-13.59l-25.45,0c-1.5,0 -2.71,-1.21 -2.71,-2.71c0,-1.5 1.21,-2.71 2.71,-2.71l25.45,0l0,-5.49l-40.36,0l0,24.5l40.36,0l0,0zm-7.38,60.52c-3.26,-3.28 -7.8,-5.29 -12.8,-5.29c-5,0 -9.52,2.03 -12.8,5.29c-3.26,3.26 -5.29,7.8 -5.29,12.8c0,2.47 0.49,4.8 1.37,6.92c0.57,1.37 1.3,2.67 2.16,3.83l12.65,-12.65c1.06,-1.06 2.78,-1.06 3.84,0l12.65,12.65c0.84,-1.12 1.54,-2.36 2.11,-3.68l0.04,-0.15c0.88,-2.12 1.37,-4.45 1.37,-6.92c-0.02,-5 -2.02,-9.54 -5.3,-12.8zm4.18,33.65l-16.98,-16.99l-16.99,16.99l16.99,16.99l16.98,-16.99zm-16.98,-44.36c6.48,0 12.36,2.62 16.61,6.87c4.28,4.27 6.9,10.16 6.9,16.63c0,3.17 -0.64,6.21 -1.78,8.99l-0.07,0.15c-0.84,1.96 -1.94,3.81 -3.24,5.46l4.32,4.32c1.06,1.06 1.06,2.78 0,3.83l-20.82,20.82c-1.06,1.06 -2.78,1.06 -3.84,0l-20.82,-20.82c-1.06,-1.06 -1.06,-2.78 0,-3.83l4.32,-4.32c-1.34,-1.7 -2.45,-3.59 -3.28,-5.62c-1.17,-2.78 -1.81,-5.82 -1.81,-8.99c0,-6.48 2.64,-12.36 6.89,-16.61c4.25,-4.25 10.14,-6.88 16.62,-6.88zm-153.81,-16.43l-41.75,0l-6.57,48.82l41.75,0l6.57,-48.82zm-44.11,-5.42l47.19,0c1.5,0 2.71,1.21 2.71,2.71l-7.32,54.6c-0.2,1.37 -1.34,2.33 -2.69,2.33l-47.19,0.02c-1.5,0 -2.71,-1.21 -2.71,-2.71l7.34,-54.6c0.18,-1.36 1.35,-2.35 2.67,-2.35zm-15.47,138.76c-1.47,0 -2.69,-1.21 -2.69,-2.71c0,-1.5 1.21,-2.71 2.69,-2.71l186.88,0c1.5,0 2.71,1.21 2.71,2.71c0,1.5 -1.21,2.71 -2.71,2.71l-186.88,0zm253.33,-5.42c1.5,0 2.71,1.21 2.71,2.71c0,1.5 -1.21,2.71 -2.71,2.71l-49.35,0c-1.5,0 -2.71,-1.21 -2.71,-2.71c0,-1.5 1.21,-2.71 2.71,-2.71l49.35,0zm-61.29,12.62c1.5,0 2.71,1.21 2.71,2.69c0,1.5 -1.21,2.71 -2.71,2.71l-111.86,0c-1.5,0 -2.71,-1.21 -2.71,-2.71c0,-1.48 1.21,-2.69 2.71,-2.69l111.86,0zm-253.33,5.4c-1.47,0 -2.71,-1.21 -2.71,-2.71c0,-1.48 1.23,-2.69 2.71,-2.69l49.38,0c1.5,0 2.71,1.21 2.71,2.69c0,1.5 -1.21,2.71 -2.71,2.71l-49.38,0zm92.91,0c-1.5,0 -2.71,-1.21 -2.71,-2.71c0,-1.48 1.21,-2.69 2.71,-2.69l22.52,0c1.5,0 2.71,1.21 2.71,2.69c0,1.5 -1.21,2.71 -2.71,2.71l-22.52,0zm86.61,-264.56c-1.48,0 -2.71,-1.21 -2.71,-2.71c0,-1.48 1.23,-2.71 2.71,-2.71l5.49,0l0,-16.02l20.62,0l0,16.02l4.32,0c1.5,0 2.71,1.23 2.71,2.71c0,1.5 -1.21,2.71 -2.71,2.71l-4.32,0l0,39.97c0.02,1.1 0.68,2.16 1.78,2.56c6.99,2.51 13,7.18 17.21,13.18c4.1,5.79 6.5,12.89 6.5,20.51l0,11.68l0,0.07l0,5.64l-35.8,0c-1.5,0 -2.71,1.21 -2.71,2.71l0,110.65c0,1.5 1.21,2.71 2.71,2.71l35.8,0l0,22.78l-50.59,0l0,-170.75c0,-0.71 -0.26,-1.34 -0.71,-1.83l-0.09,-0.09l-3.7,-4.36l-4.78,-5.68c1.43,-1.3 2.97,-2.51 4.6,-3.57c2.22,-1.45 4.63,-2.67 7.16,-3.59c1.15,-0.33 1.98,-1.37 1.98,-2.62l0,-39.97l-5.47,0zm-32.37,59l24.85,0l-6.5,-7.69l-0.04,-0.04l-9.05,-10.71l-9.26,18.44z" class="st0"/>
   </g>
  </g>
 </g>
</svg>