<?xml version="1.0" encoding="utf-8"?>
<!-- Generator: Adobe Illustrator 23.0.3, SVG Export Plug-In . SVG Version: 6.00 Build 0)  -->
<svg version="1.1" id="Layer_1" xmlns="http://www.w3.org/2000/svg" xmlns:xlink="http://www.w3.org/1999/xlink" x="0px" y="0px"
	 viewBox="0 0 2435.98 1125" style="enable-background:new 0 0 2435.98 1125;" xml:space="preserve">
<style type="text/css">
	.st0{fill-rule:evenodd;clip-rule:evenodd;fill:none;stroke:#02CC1A;stroke-width:2;stroke-miterlimit:10;}
</style>
<g>
	<g>
		<path class="st0" d="M1206.8,473.86h-29.63v168.17h29.63V473.86z M1182.68,448.74h-34.5l-51.47,1.21l-9.28,18.49h85.37
			L1182.68,448.74z M1149.14,443.32l35.67-0.84v-20.03h-85.99v20.86H1149.14z M1085.76,524.67h10.84c0.2,0,0.4,0.04,0.57,0.09h0.02
			h0.07l0,0l0.18,0.07h0.02l0.13,0.04l0.04,0.02l0,0l0.07,0.02l0,0l0.04,0.04h0.02l0.04,0.02h0.02l0.04,0.02l0,0l0.04,0.04h0.02
			l0.09,0.07h0.02l0.05,0.02v0.02l0.04,0.02l0.18,0.13l0,0c0.13,0.09,0.24,0.22,0.35,0.35h0.02l0.18,0.26l0,0
			c0.11,0.18,0.22,0.37,0.29,0.57v0.02l0.04,0.18l0.02,0.02v0.04c0.04,0.2,0.09,0.42,0.09,0.62v0.04l-0.02,0.29l-2.09,17.16v0.07
			c0,0.16-0.02,0.29-0.04,0.42l-9.03,74.89v0.16c0,0.26-0.04,0.53-0.13,0.77l-1.12,9.36h0.04h0.02h0.04h0.02h0.04h0.02l0.04,0.02
			h0.02h0.04h0.02l0.04,0.02h0.02l0.04,0.02h0.02l0.11,0.02h0.02l0.04,0.02l0,0l0.07,0.02l0,0l0.07,0.02l0,0l0.18,0.07l0,0
			l0.04,0.02l0.02,0.02h0.04l0.02,0.02l0.02,0.02h0.02l0.22,0.13l0.04,0.02l0.02,0.02l0.02,0.02l0.02,0.02l0.02,0.02l0.04,0.02l0,0
			l0.04,0.04h0.02l0.02,0.02l0.02,0.02l0.02,0.02l0.02,0.02l0.02,0.02l0.02,0.02l0.05,0.02v0.02l0.04,0.04l0,0l0.04,0.04l0,0
			l0.04,0.04l0,0l0.02,0.04h0.02l0.02,0.04h0.02l0.02,0.07l0,0l0.04,0.04l0,0l0.02,0.04l0.02,0.02l0.02,0.04l0,0l0.04,0.04v0.02
			l0.02,0.04l0,0l0.04,0.04v0.02l0.02,0.04l0,0l0.02,0.04v0.02l0.02,0.04l0.02,0.02v0.02l0.02,0.04l0.02,0.02v0.02l0.02,0.04v0.02
			l0.02,0.04v0.02l0.02,0.02v0.04l0.02,0.02v0.04v0.02l0.02,0.04v0.02v0.04l0.02,0.02v0.04v0.02l0.02,0.04l0,0v0.07l0,0l0.02,0.07
			l0,0v0.07l0,0v0.07l0,0v0.07l0,0l0.02,0.07l0,0v0.07v8.81h82.33V473.86h-85.99V524.67z M1050.55,630.51h30.8l10-83h-40.98
			c-1.47,0-2.71-1.21-2.71-2.71c0-1.5,1.24-2.71,2.71-2.71h41.68l1.1-8.81l0.2-1.59l0.18-1.61h-10.47h-0.09h-44.57L1050.55,630.51z
			 M1083.99,642.03v-6.1l-0.24,0.02h-35.54l-0.24-0.02v6.1H1083.99z M1071.55,566.59c-1.52-2.56-3.5-4.14-5.57-4.14
			c-2.03,0-3.97,1.52-5.49,4.01l-0.07,0.13c-1.76,2.97-2.86,7.16-2.86,11.83c0,4.6,1.06,8.73,2.78,11.7l0.09,0.13
			c1.52,2.55,3.5,4.14,5.55,4.14c2.03,0,3.99-1.52,5.51-4.01l0.07-0.13c1.76-2.97,2.86-7.16,2.86-11.83
			C1074.41,573.75,1073.31,569.57,1071.55,566.59z M1065.97,557.03c4.1,0,7.69,2.6,10.2,6.79c2.27,3.79,3.66,8.97,3.66,14.61
			c0,5.64-1.39,10.82-3.66,14.61l-0.11,0.16c-2.49,4.1-6.06,6.63-10.09,6.63c-4.08,0-7.69-2.6-10.18-6.79l-0.09-0.15
			c-2.2-3.77-3.57-8.88-3.57-14.45c0-5.64,1.39-10.82,3.66-14.61l0.09-0.15C1058.39,559.57,1061.94,557.03,1065.97,557.03z
			 M1262.81,592.08h-16.55c-1.5,0-2.71-1.21-2.71-2.71v-56.62c0-1.5,1.21-2.71,2.71-2.71h16.55v-21.59h-33.09v105.23h33.09V592.08z
			 M1262.81,535.46h-13.84v51.2h13.84V535.46z M1346.86,500.1h-17.51h-0.09h-45.78h-0.07h-15.18v5.57v27.01v0.07v56.62v0.07v27.01
			v25.01h78.63V500.1L1346.86,500.1z M1326.55,494.68v-13.59h-25.45c-1.5,0-2.71-1.21-2.71-2.71c0-1.5,1.21-2.71,2.71-2.71h25.45
			v-5.49h-40.36v24.5L1326.55,494.68L1326.55,494.68z M1319.17,555.2c-3.26-3.28-7.8-5.29-12.8-5.29c-5,0-9.52,2.03-12.8,5.29
			c-3.26,3.26-5.29,7.8-5.29,12.8c0,2.47,0.49,4.8,1.37,6.92c0.57,1.37,1.3,2.67,2.16,3.83l12.65-12.65c1.06-1.06,2.78-1.06,3.84,0
			l12.65,12.65c0.84-1.12,1.54-2.36,2.11-3.68l0.04-0.15c0.88-2.12,1.37-4.45,1.37-6.92C1324.45,563,1322.45,558.46,1319.17,555.2z
			 M1323.35,588.85l-16.98-16.99l-16.99,16.99l16.99,16.99L1323.35,588.85z M1306.37,544.49c6.48,0,12.36,2.62,16.61,6.87
			c4.28,4.27,6.9,10.16,6.9,16.63c0,3.17-0.64,6.21-1.78,8.99l-0.07,0.15c-0.84,1.96-1.94,3.81-3.24,5.46l4.32,4.32
			c1.06,1.06,1.06,2.78,0,3.83l-20.82,20.82c-1.06,1.06-2.78,1.06-3.84,0l-20.82-20.82c-1.06-1.06-1.06-2.78,0-3.83l4.32-4.32
			c-1.34-1.7-2.45-3.59-3.28-5.62c-1.17-2.78-1.81-5.82-1.81-8.99c0-6.48,2.64-12.36,6.89-16.61
			C1294,547.12,1299.89,544.49,1306.37,544.49z M1152.56,528.06h-41.75l-6.57,48.82h41.75L1152.56,528.06z M1108.45,522.64h47.19
			c1.5,0,2.71,1.21,2.71,2.71l-7.32,54.6c-0.2,1.37-1.34,2.33-2.69,2.33l-47.19,0.02c-1.5,0-2.71-1.21-2.71-2.71l7.34-54.6
			C1105.96,523.63,1107.13,522.64,1108.45,522.64z M1092.98,661.4c-1.47,0-2.69-1.21-2.69-2.71c0-1.5,1.21-2.71,2.69-2.71h186.88
			c1.5,0,2.71,1.21,2.71,2.71c0,1.5-1.21,2.71-2.71,2.71H1092.98z M1346.31,655.98c1.5,0,2.71,1.21,2.71,2.71
			c0,1.5-1.21,2.71-2.71,2.71h-49.35c-1.5,0-2.71-1.21-2.71-2.71c0-1.5,1.21-2.71,2.71-2.71H1346.31z M1285.02,668.6
			c1.5,0,2.71,1.21,2.71,2.69c0,1.5-1.21,2.71-2.71,2.71h-111.86c-1.5,0-2.71-1.21-2.71-2.71c0-1.48,1.21-2.69,2.71-2.69H1285.02z
			 M1031.69,674c-1.47,0-2.71-1.21-2.71-2.71c0-1.48,1.23-2.69,2.71-2.69h49.38c1.5,0,2.71,1.21,2.71,2.69
			c0,1.5-1.21,2.71-2.71,2.71H1031.69z M1124.6,674c-1.5,0-2.71-1.21-2.71-2.71c0-1.48,1.21-2.69,2.71-2.69h22.52
			c1.5,0,2.71,1.21,2.71,2.69c0,1.5-1.21,2.71-2.71,2.71H1124.6z M1211.21,409.44c-1.48,0-2.71-1.21-2.71-2.71
			c0-1.48,1.23-2.71,2.71-2.71h5.49V388h20.62v16.02h4.32c1.5,0,2.71,1.23,2.71,2.71c0,1.5-1.21,2.71-2.71,2.71h-4.32v39.97
			c0.02,1.1,0.68,2.16,1.78,2.56c6.99,2.51,13,7.18,17.21,13.18c4.1,5.79,6.5,12.89,6.5,20.51v11.68v0.07v5.64h-35.8
			c-1.5,0-2.71,1.21-2.71,2.71v110.65c0,1.5,1.21,2.71,2.71,2.71h35.8v22.78h-50.59V471.15c0-0.71-0.26-1.34-0.71-1.83l-0.09-0.09
			l-3.7-4.36l-4.78-5.68c1.43-1.3,2.97-2.51,4.6-3.57c2.22-1.45,4.63-2.67,7.16-3.59c1.15-0.33,1.98-1.37,1.98-2.62v-39.97H1211.21z
			 M1178.84,468.44h24.85l-6.5-7.69l-0.04-0.04L1188.1,450L1178.84,468.44z"/>
	</g>
</g>
</svg>
