<svg xmlns="http://www.w3.org/2000/svg" width="101.45985400951739" height="104.56204386675608"><rect id="backgroundrect" width="100%" height="100%" x="0" y="0" fill="none" stroke="none" class="" style=""/>
 <title>Artboard 24</title>

 <g style="">
  <title>background</title>
  <rect fill="none" id="canvas_background" height="402" width="582" y="-1" x="-1"/>
 </g>
 <g style="" class="currentLayer">
  <title>Layer 1</title>
  <path fill="white" id="svg_1" d="m57.76,97.35l-5.53,-16a14.64,14.64 0 0 0 9.7,-6a0.48,0.48 0 0 1 0.39,-0.2l0.15,0a14.47,14.47 0 0 0 12,-1.24l5.46,15.79a2.45,2.45 0 0 1 -3.25,3.06l-7.68,-3.15a2.21,2.21 0 0 0 -2.77,1l-4.03,7.15a2.45,2.45 0 0 1 -4.44,-0.41zm26,-64.14a7.55,7.55 0 0 0 0,9a7.55,7.55 0 0 1 -3.76,11.73l0,0a7.55,7.55 0 0 0 -5.3,7.29a7.54,7.54 0 0 1 -10,7.24a7.55,7.55 0 0 0 -8.57,2.79a7.55,7.55 0 0 1 -12.32,0a7.55,7.55 0 0 0 -8.57,-2.79a7.54,7.54 0 0 1 -10,-7.24a7.55,7.55 0 0 0 -5.24,-7.29a7.55,7.55 0 0 1 -3.8,-11.71a7.55,7.55 0 0 0 0,-9a7.55,7.55 0 0 1 3.8,-11.73a7.55,7.55 0 0 0 5.3,-7.29a7.54,7.54 0 0 1 9.97,-7.21a7.54,7.54 0 0 0 2.41,0.4a7.55,7.55 0 0 0 6.16,-3.18a7.55,7.55 0 0 1 12.32,0a7.55,7.55 0 0 0 6.16,3.18a7.54,7.54 0 0 0 2.41,-0.4a7.54,7.54 0 0 1 10,7.24a7.55,7.55 0 0 0 5.27,7.26l0,0a7.55,7.55 0 0 1 3.8,11.71l-0.04,0zm-12.8,4.51a21,21 0 1 0 -21,21a21,21 0 0 0 21.04,-21l-0.04,0zm2.8,-9.51l-6.35,-0.92l-2.84,-5.76a1.92,1.92 0 0 0 -3.45,0l-2.84,5.76l-6.35,0.92a1.92,1.92 0 0 0 -13.93,7.79l4.6,4.48l-1.09,6.33a1.92,1.92 0 0 0 2.79,2l5.68,-3l5.68,3a1.91,1.91 0 0 0 2,-0.15a1.91,1.91 0 0 0 0.76,-1.88l-1.09,-6.33l4.67,-4.45a1.92,1.92 0 0 0 -1.07,-3.28l12.83,-4.51zm-37.6,60l-5.16,1.4a2.21,2.21 0 0 1 2.77,1l4.08,7.19a2.45,2.45 0 0 0 4.44,-0.41l5.53,-16a14.64,14.64 0 0 1 -9.7,-6a0.48,0.48 0 0 0 -0.39,-0.2l-0.15,0a14.47,14.47 0 0 1 -12,-1.24l-5.51,15.75a2.45,2.45 0 0 0 3.24,3.06l12.85,-4.55z" class=""/>
  
  
 </g>
</svg>