<svg xmlns="http://www.w3.org/2000/svg" data-name="Layer 1" viewBox="0 0 100 125" x="0px" y="0px"><title>Artboard 24</title><path d="M57.76,97.35l-5.53-16a14.64,14.64,0,0,0,9.7-6,.48.48,0,0,1,.39-.2l.15,0a14.47,14.47,0,0,0,12-1.24L79.93,89.7a2.45,2.45,0,0,1-3.25,3.06L69,89.61a2.21,2.21,0,0,0-2.77,1L62.2,97.76A2.45,2.45,0,0,1,57.76,97.35Zm26-64.14a7.55,7.55,0,0,0,0,9A7.55,7.55,0,0,1,80,53.94h0a7.55,7.55,0,0,0-5.3,7.29,7.54,7.54,0,0,1-10,7.24,7.55,7.55,0,0,0-8.57,2.79,7.55,7.55,0,0,1-12.32,0,7.55,7.55,0,0,0-8.57-2.79,7.54,7.54,0,0,1-10-7.24A7.55,7.55,0,0,0,20,53.94,7.55,7.55,0,0,1,16.2,42.23a7.55,7.55,0,0,0,0-9A7.55,7.55,0,0,1,20,21.5a7.55,7.55,0,0,0,5.3-7.29A7.54,7.54,0,0,1,35.27,7a7.54,7.54,0,0,0,2.41.4,7.55,7.55,0,0,0,6.16-3.18,7.55,7.55,0,0,1,12.32,0,7.55,7.55,0,0,0,6.16,3.18A7.54,7.54,0,0,0,64.73,7a7.54,7.54,0,0,1,10,7.24A7.55,7.55,0,0,0,80,21.5h0A7.55,7.55,0,0,1,83.8,33.21ZM71,37.72a21,21,0,1,0-21,21A21,21,0,0,0,71,37.72Zm-10-5-6.35-.92-2.84-5.76a1.92,1.92,0,0,0-3.45,0l-2.84,5.76-6.35.92A1.92,1.92,0,0,0,38,36l4.6,4.48-1.09,6.33a1.92,1.92,0,0,0,2.79,2l5.68-3,5.68,3a1.91,1.91,0,0,0,2-.15,1.91,1.91,0,0,0,.76-1.88l-1.09-6.33L62,36a1.92,1.92,0,0,0-1.07-3.28Zm-37.6,60L31,89.61a2.21,2.21,0,0,1,2.77,1l4.08,7.19a2.45,2.45,0,0,0,4.44-.41l5.53-16a14.64,14.64,0,0,1-9.7-6,.48.48,0,0,0-.39-.2l-.15,0a14.47,14.47,0,0,1-12-1.24L20.07,89.7A2.45,2.45,0,0,0,23.31,92.76Z"/><text x="0" y="115" fill="#000000" font-size="5px" font-weight="bold" font-family="'Helvetica Neue', Helvetica, Arial-Unicode, Arial, Sans-serif">Created by Gregor Cresnar</text><text x="0" y="120" fill="#000000" font-size="5px" font-weight="bold" font-family="'Helvetica Neue', Helvetica, Arial-Unicode, Arial, Sans-serif">from the Noun Project</text></svg>