<?xml version="1.0" encoding="utf-8"?>
<!-- Generator: Adobe Illustrator 23.0.3, SVG Export Plug-In . SVG Version: 6.00 Build 0)  -->
<svg version="1.1" id="Layer_1" xmlns="http://www.w3.org/2000/svg" xmlns:xlink="http://www.w3.org/1999/xlink" x="0px" y="0px"
	 viewBox="0 0 128 160" style="enable-background:new 0 0 128 160;" xml:space="preserve">
<style type="text/css">
	.st0{fill:none;stroke:#FC8403;stroke-width:3;stroke-miterlimit:10;}
</style>
<g>
	<g>
		<g>
			<g>
				<g>
					<path class="st0" d="M72.6,10.8c0,0.4-0.2,0.7-0.5,1c-1.3,1.1-2.6,2.2-4,3.3c-0.4,0.3-0.4,0.6-0.3,1c0.4,1.6,0.8,3.2,1.2,4.9
						c0.2,0.6,0,1.1-0.5,1.5c-0.4,0.3-1,0.3-1.6,0c-1.5-0.9-2.9-1.8-4.4-2.8c-0.3-0.2-0.5-0.2-0.8,0c-1.4,0.9-2.8,1.8-4.2,2.6
						c-0.4,0.3-0.8,0.4-1.3,0.3c-0.7-0.2-1.1-0.9-0.9-1.6c0.4-1.8,0.9-3.5,1.3-5.3c0.1-0.3,0-0.4-0.2-0.6c-1.3-1-2.5-2.1-3.7-3.2
						c-0.5-0.4-0.9-0.8-0.8-1.5c0-0.7,0.5-1.2,1.2-1.2c1.8-0.1,3.7-0.2,5.5-0.4c0.3,0,0.4-0.2,0.5-0.4c0.6-1.5,1.2-3,1.9-4.6
						c0.1-0.1,0.1-0.3,0.2-0.4c0.3-0.5,0.7-0.8,1.3-0.8s1,0.3,1.2,0.9c0.7,1.6,1.3,3.3,2,4.9c-0.2,0.4,0,0.6,0.4,0.6
						c1.6,0.1,3.2,0.2,4.8,0.3c0.2,0,0.5,0,0.7,0.1C72.2,9.6,72.6,10.2,72.6,10.8z"/>
				</g>
			</g>
			<g>
				<g>
					<path class="st0" d="M107.6,32.5c-0.3,0.3-0.7,0.4-1.1,0.3c-1.7-0.2-3.4-0.3-5.1-0.5c-0.5-0.1-0.7,0.1-0.9,0.5
						c-0.8,1.4-1.7,2.9-2.6,4.3c-0.3,0.5-0.8,0.8-1.4,0.7s-1-0.5-1.1-1.2c-0.4-1.7-0.8-3.4-1.1-5.1c-0.1-0.4-0.2-0.5-0.6-0.6
						c-1.6-0.4-3.2-0.8-4.9-1.1c-0.5-0.1-0.9-0.3-1.1-0.7c-0.4-0.6-0.2-1.4,0.5-1.8c1.6-0.9,3.1-1.9,4.7-2.8
						c0.2-0.1,0.3-0.3,0.3-0.5c-0.1-1.6-0.3-3.3-0.4-4.9c-0.1-0.6-0.1-1.2,0.4-1.6s1.2-0.5,1.7,0c1.4,1.2,2.8,2.4,4.1,3.6
						c0.2,0.2,0.4,0.1,0.6,0.1c1.5-0.6,3-1.3,4.6-1.9c0.1-0.1,0.3-0.1,0.4-0.2c0.5-0.2,1-0.1,1.5,0.3c0.4,0.4,0.5,0.9,0.3,1.5
						c-0.7,1.6-1.4,3.2-2.1,4.9c-0.1,0.3-0.1,0.5,0.1,0.8c1.1,1.2,2.1,2.4,3.2,3.7c0.2,0.2,0.3,0.4,0.4,0.6
						C108.2,31.4,108.1,32,107.6,32.5z"/>
				</g>
			</g>
			<g>
				<g>
					<path class="st0" d="M117.2,72.6c-0.4,0-0.7-0.2-1-0.5c-1.1-1.3-2.2-2.6-3.3-4c-0.3-0.4-0.6-0.4-1-0.3
						c-1.6,0.4-3.2,0.8-4.9,1.2c-0.6,0.2-1.1,0-1.5-0.5c-0.3-0.4-0.3-1,0-1.6c0.9-1.5,1.8-2.9,2.8-4.4c0.2-0.3,0.2-0.5,0-0.8
						c-0.9-1.4-1.8-2.8-2.6-4.2c-0.3-0.4-0.4-0.8-0.3-1.3c0.2-0.7,0.9-1.1,1.6-0.9c1.8,0.4,3.5,0.9,5.3,1.3c0.3,0.1,0.4,0,0.6-0.2
						c1-1.3,2.1-2.5,3.2-3.7c0.4-0.5,0.8-0.9,1.5-0.8c0.7,0,1.2,0.5,1.2,1.2c0.1,1.8,0.2,3.7,0.4,5.5c0,0.3,0.2,0.4,0.4,0.5
						c1.5,0.6,3,1.2,4.6,1.9c0.1,0.1,0.3,0.1,0.4,0.2c0.5,0.3,0.8,0.7,0.8,1.3s-0.3,1-0.9,1.2c-1.6,0.7-3.3,1.3-4.9,2
						c-0.3,0.1-0.5,0.3-0.5,0.7c-0.1,1.6-0.2,3.2-0.3,4.8c0,0.2,0,0.5-0.1,0.7C118.4,72.2,117.8,72.6,117.2,72.6z"/>
				</g>
			</g>
			<g>
				<g>
					<path class="st0" d="M95.5,107.6c-0.3-0.3-0.4-0.7-0.3-1.1c0.2-1.7,0.3-3.4,0.5-5.1c0.1-0.5-0.1-0.7-0.5-0.9
						c-1.4-0.8-2.9-1.7-4.3-2.6c-0.5-0.3-0.8-0.8-0.7-1.4c0.1-0.6,0.5-1,1.2-1.1c1.7-0.4,3.4-0.8,5.1-1.1c0.4-0.1,0.5-0.2,0.6-0.6
						c0.4-1.6,0.8-3.2,1.1-4.9c0.1-0.5,0.3-0.9,0.7-1.1c0.6-0.4,1.4-0.2,1.8,0.5c0.9,1.6,1.9,3.1,2.8,4.7c0.1,0.2,0.3,0.3,0.5,0.3
						c1.6-0.1,3.3-0.3,4.9-0.4c0.6-0.1,1.2-0.1,1.6,0.4s0.5,1.2,0,1.7c-1.2,1.4-2.4,2.8-3.6,4.1c-0.2,0.2-0.1,0.4-0.1,0.6
						c0.6,1.5,1.3,3,1.9,4.6c0.1,0.1,0.1,0.3,0.2,0.4c0.2,0.5,0.1,1-0.3,1.5c-0.4,0.4-0.9,0.5-1.5,0.3c-1.6-0.7-3.2-1.4-4.9-2.1
						c-0.3-0.1-0.5-0.1-0.8,0.1c-1.2,1.1-2.4,2.1-3.7,3.2c-0.2,0.2-0.4,0.3-0.6,0.4C96.6,108.2,96,108.1,95.5,107.6z"/>
				</g>
			</g>
			<g>
				<g>
					<path class="st0" d="M55.4,117.2c0-0.4,0.2-0.7,0.5-1c1.3-1.1,2.6-2.2,4-3.3c0.4-0.3,0.4-0.6,0.3-1c-0.4-1.6-0.8-3.2-1.2-4.9
						c-0.2-0.6,0-1.1,0.5-1.5c0.4-0.3,1-0.3,1.6,0c1.5,0.9,2.9,1.8,4.4,2.8c0.3,0.2,0.5,0.2,0.8,0c1.4-0.9,2.8-1.8,4.2-2.6
						c0.4-0.3,0.8-0.4,1.3-0.3c0.7,0.2,1.1,0.9,0.9,1.6c-0.4,1.8-0.9,3.5-1.3,5.3c-0.1,0.3,0,0.4,0.2,0.6c1.3,1,2.5,2.1,3.7,3.2
						c0.5,0.4,0.9,0.8,0.8,1.5c0,0.7-0.5,1.2-1.2,1.2c-1.8,0.1-3.7,0.2-5.5,0.4c-0.3,0-0.4,0.2-0.5,0.4c-0.6,1.5-1.2,3-1.9,4.6
						c-0.1,0.1-0.1,0.3-0.2,0.4c-0.3,0.5-0.7,0.8-1.3,0.8c-0.6,0-1-0.3-1.2-0.9c-0.7-1.6-1.3-3.3-2-4.9c-0.1-0.3-0.3-0.5-0.7-0.5
						c-1.6-0.1-3.2-0.2-4.8-0.3c-0.2,0-0.5,0-0.7-0.1C55.8,118.4,55.4,117.8,55.4,117.2z"/>
				</g>
			</g>
			<g>
				<g>
					<path class="st0" d="M20.4,95.5c0.3-0.3,0.7-0.4,1.1-0.3c1.7,0.2,3.4,0.3,5.1,0.5c0.5,0.1,0.7-0.1,0.9-0.5
						c0.8-1.4,1.7-2.9,2.6-4.3c0.3-0.5,0.8-0.8,1.4-0.7c0.6,0.1,1,0.5,1.1,1.2c0.4,1.7,0.8,3.4,1.1,5.1c0.1,0.4,0.2,0.5,0.6,0.6
						c1.6,0.4,3.2,0.8,4.9,1.1c0.5,0.1,0.9,0.3,1.1,0.7c0.4,0.6,0.2,1.4-0.5,1.8c-1.6,0.9-3.1,1.9-4.7,2.8c-0.2,0.1-0.3,0.3-0.3,0.5
						c0.1,1.6,0.3,3.3,0.4,4.9c0.1,0.6,0.1,1.2-0.4,1.6s-1.2,0.5-1.7,0c-1.4-1.2-2.8-2.4-4.1-3.6c-0.2-0.2-0.4-0.1-0.6-0.1
						c-1.5,0.6-3,1.3-4.6,1.9c-0.1,0.1-0.3,0.1-0.4,0.2c-0.5,0.2-1,0.1-1.5-0.3c-0.4-0.4-0.5-0.9-0.3-1.5c0.7-1.6,1.4-3.2,2.1-4.9
						c0.1-0.3,0.1-0.5-0.1-0.8c-1.1-1.2-2.1-2.4-3.2-3.7c-0.2-0.2-0.3-0.4-0.4-0.6C19.8,96.6,19.9,96,20.4,95.5z"/>
				</g>
			</g>
			<g>
				<g>
					<path class="st0" d="M10.8,55.4c0.4,0,0.7,0.2,1,0.5c1.1,1.3,2.2,2.6,3.3,4c0.3,0.4,0.6,0.4,1,0.3c1.6-0.4,3.2-0.8,4.9-1.2
						c0.6-0.2,1.1,0,1.5,0.5c0.3,0.4,0.3,1,0,1.6c-0.9,1.5-1.8,2.9-2.8,4.4c-0.2,0.3-0.2,0.5,0,0.8c0.9,1.4,1.8,2.8,2.6,4.2
						c0.3,0.4,0.4,0.8,0.3,1.3c-0.2,0.7-0.9,1.1-1.6,0.9c-1.8-0.4-3.5-0.9-5.3-1.3c-0.3-0.1-0.4,0-0.6,0.2c-1,1.3-2.1,2.5-3.2,3.7
						c-0.4,0.5-0.8,0.9-1.5,0.8c-0.7,0-1.2-0.5-1.2-1.2c-0.1-1.8-0.2-3.7-0.4-5.5c0-0.3-0.2-0.4-0.4-0.5c-1.5-0.6-3-1.2-4.6-1.9
						c-0.1-0.1-0.3-0.1-0.4-0.2c-0.5-0.3-0.8-0.7-0.8-1.3c0-0.6,0.3-1,0.9-1.2c1.6-0.7,3.3-1.3,4.9-2c0.4,0.2,0.6,0,0.6-0.4
						c0.1-1.6,0.2-3.2,0.3-4.8c0-0.2,0-0.5,0.1-0.7C9.6,55.8,10.2,55.4,10.8,55.4z"/>
				</g>
			</g>
			<g>
				<g>
					<path class="st0" d="M32.5,20.4c0.3,0.3,0.4,0.7,0.3,1.1c-0.2,1.7-0.3,3.4-0.5,5.1c-0.1,0.5,0.1,0.7,0.5,0.9
						c1.4,0.8,2.9,1.7,4.3,2.6c0.5,0.3,0.8,0.8,0.7,1.4c-0.1,0.6-0.5,1-1.2,1.1c-1.7,0.4-3.4,0.8-5.1,1.1c-0.4,0.1-0.5,0.2-0.6,0.6
						c-0.4,1.6-0.8,3.2-1.1,4.9c-0.1,0.5-0.3,0.9-0.7,1.1c-0.6,0.4-1.4,0.2-1.8-0.5c-0.9-1.6-1.9-3.1-2.8-4.7
						c-0.1-0.2-0.3-0.3-0.5-0.3c-1.6,0.1-3.3,0.3-4.9,0.4c-0.6,0.1-1.2,0.1-1.6-0.4s-0.5-1.2,0-1.7c1.2-1.4,2.4-2.8,3.6-4.1
						c0.2-0.2,0.1-0.4,0.1-0.6c-0.6-1.5-1.3-3-1.9-4.6c-0.1-0.1-0.1-0.3-0.2-0.4c-0.2-0.5-0.1-1,0.3-1.5c0.4-0.4,0.9-0.5,1.5-0.3
						c1.6,0.7,3.2,1.4,4.9,2.1c0.3,0.1,0.5,0.1,0.8-0.1c1.2-1.1,2.4-2.1,3.7-3.2c0.2-0.2,0.4-0.3,0.6-0.4
						C31.4,19.8,32,19.9,32.5,20.4z"/>
				</g>
			</g>
		</g>
	</g>
	<g>
		<g>
			<g>
				<path class="st0" d="M90.7,51.7l-0.2-0.2c-0.1-0.1-0.1-0.1-0.2-0.1l-0.1-0.1c0,0-0.1,0-0.1-0.1l-0.3-0.1
					c-0.1-0.1-0.3-0.1-0.4-0.2c-2.4-0.8-5-0.4-7.4-0.2c-0.1,0-0.2,0-0.3,0c-0.2,0-0.5,0-0.9,0c-0.1,0-0.3,0-0.5,0
					c-0.1,0-0.2,0-0.4,0c-0.5,0-1.1,0-1.6,0.1c-0.1,0-0.2,0-0.3,0c-0.1,0-0.2,0-0.2,0c-0.2,0-0.3,0-0.5,0c-0.3,0-0.6,0.1-0.8,0.1
					c-0.1,0-0.2,0-0.2,0l0,0l0,0c-0.1,0-0.1-0.1-0.1-0.1l0,0l0.7-2.4c0.4-1.5,0.9-3,1.3-4.5c0.7-2.1,0.9-3.9,0.7-5.5
					c-0.2-2.1-1.5-4.1-3.3-5.2c-1-0.6-2.2-1-3.4-1c-0.1,0-0.2,0-0.3,0c-1.1,0-1.8,0.7-1.9,1.8c-0.1,1.4-0.3,2.7-0.5,4
					c-0.3,2.2-0.9,4-1.8,5.5c-0.5,0.9-1.1,1.7-1.8,2.4c-0.9,1-1.9,2.1-3,3.3L60.4,52c-0.6,0.7-1.2,1.3-1.8,1.9
					c-0.1,0.1-0.3,0.3-0.5,0.4c-0.4,0.4-0.9,0.7-1.4,0.9c-0.3,0.1-0.7,0.3-1.2,0.4c-2.1,0.6-3.3,1.2-3.4,2.4c0,0.7-0.1,1.3-0.1,1.9
					v0.4c0,0.5,0,1.1,0,1.6v19.5h3.3h0.2c1.1,0.2,2.3,0.4,3.8,0.6l0.7,0.1c2.9,0.5,5.7,0.9,8.4,1.3c6.7,0.8,14.7,2.7,19.6-3.3
					c2-2.5,2.2-6,2.6-9c0.7-4.9,1.6-9.9,2.3-14.8C93,54.7,92.2,52.8,90.7,51.7z"/>
			</g>
			<g>
				<path class="st0" d="M46.2,53.2h-8.9c-1.2,0-2.1,0.9-2.1,2.1v26.3c0,1.2,0.9,2.1,2.1,2.1h8.9c1.2,0,2.1-0.9,2.1-2.1V55.3
					C48.3,54.1,47.4,53.2,46.2,53.2z"/>
			</g>
		</g>
	</g>
</g>
<text transform="matrix(1 0 0 1 142.0211 19.9034)" style="font-family:'SitkaBanner'; font-size:12px;">Brands listed with us</text>
<text transform="matrix(1 0 0 1 143.0427 40.5039)" style="fill:none;stroke:#000000;stroke-width:0.25;stroke-miterlimit:10; font-family:'MyanmarText'; font-size:12px;">Brands listed with us</text>
</svg>
