<?xml version="1.0" encoding="utf-8"?>
<!-- Generator: Adobe Illustrator 23.0.3, SVG Export Plug-In . SVG Version: 6.00 Build 0)  -->
<svg version="1.1" id="Layer_1" xmlns="http://www.w3.org/2000/svg" xmlns:xlink="http://www.w3.org/1999/xlink" x="0px" y="0px"
	 viewBox="0 0 100 125" style="enable-background:new 0 0 100 125;" xml:space="preserve">
<style type="text/css">
	.st0{fill:none;stroke:#030FEA;stroke-width:3;stroke-miterlimit:10;}
</style>
<title>Artboard 24</title>
<path class="st0" d="M57.8,107.3l-5.5-16c3.9-0.6,7.4-2.8,9.7-6c0.1-0.1,0.2-0.2,0.4-0.2h0.2c4,1.4,8.4,0.9,12-1.2l5.5,15.8
	c0.4,1.3-0.2,2.7-1.5,3.1c-0.6,0.2-1.2,0.2-1.7-0.1L69,99.6c-1-0.4-2.2,0-2.8,1l-4,7.2c-0.7,1.2-2.2,1.6-3.3,0.9
	C58.3,108.4,58,107.9,57.8,107.3z M83.8,43.2c-2,2.7-2,6.3,0,9c2.5,3.3,1.8,8.1-1.5,10.6c-0.7,0.5-1.4,0.9-2.3,1.2l0,0
	c-3.2,1-5.3,4-5.3,7.3c0.1,4.2-3.3,7.6-7.4,7.7c-0.9,0-1.7-0.1-2.6-0.4c-3.2-1.1-6.6,0.1-8.6,2.8c-2.4,3.4-7.1,4.2-10.5,1.8
	c-0.7-0.5-1.3-1.1-1.8-1.8c-1.9-2.7-5.4-3.9-8.6-2.8c-3.9,1.4-8.2-0.7-9.6-4.7c-0.3-0.8-0.4-1.7-0.4-2.6c0-3.3-2.1-6.3-5.2-7.3
	c-4-1.2-6.2-5.5-4.9-9.5c0.3-0.8,0.6-1.6,1.1-2.2c2-2.7,2-6.3,0-9c-2.5-3.3-1.8-8.1,1.5-10.6c0.7-0.5,1.5-0.9,2.3-1.2
	c3.2-1,5.3-4,5.3-7.3c0-4.2,3.3-7.6,7.5-7.6c0.9,0,1.7,0.1,2.5,0.4c0.8,0.3,1.6,0.4,2.4,0.4c2.4,0,4.7-1.2,6.2-3.2
	c2.4-3.4,7.1-4.2,10.5-1.8c0.7,0.5,1.3,1.1,1.8,1.8c1.4,2,3.7,3.2,6.2,3.2c0.8,0,1.6-0.1,2.4-0.4c3.9-1.4,8.2,0.7,9.6,4.7
	c0.3,0.8,0.4,1.7,0.4,2.6c0,3.3,2.1,6.3,5.3,7.3l0,0c4,1.2,6.2,5.5,4.9,9.5C84.7,41.8,84.3,42.5,83.8,43.2L83.8,43.2z M71,47.7
	c0-11.6-9.4-21-21-21s-21,9.4-21,21s9.4,21,21,21S71,59.3,71,47.7z M61,42.7l-6.3-0.9L51.8,36c-0.5-1-1.6-1.3-2.6-0.9
	c-0.4,0.2-0.7,0.5-0.9,0.9l-2.8,5.8l-6.3,0.9c-1.1,0.1-1.8,1-1.7,2.1c0,0.5,0.2,0.9,0.6,1.2l4.6,4.5l-1.1,6.3c-0.2,1,0.5,2,1.6,2.2
	c0.4,0.1,0.8,0,1.2-0.2l5.7-3l5.7,3c0.6,0.3,1.4,0.3,2-0.2c0.6-0.4,0.9-1.2,0.8-1.9l-1.1-6.3L62,46c0.8-0.7,0.8-2,0-2.7
	C61.7,43,61.4,42.8,61,42.7L61,42.7z M23.4,102.7l7.6-3.1c1-0.4,2.2,0,2.8,1l4.1,7.2c0.7,1.2,2.2,1.6,3.3,0.9
	c0.5-0.3,0.9-0.8,1.1-1.3l5.5-16c-3.9-0.6-7.4-2.8-9.7-6c-0.1-0.1-0.2-0.2-0.4-0.2h-0.2c-4,1.4-8.4,0.9-12-1.2l-5.5,15.7
	c-0.4,1.3,0.2,2.7,1.5,3.1C22.2,103,22.8,103,23.4,102.7L23.4,102.7z"/>
</svg>
